<?xml version="1.0" encoding="UTF-8" standalone="no"?>
<!DOCTYPE svg PUBLIC "-//W3C//DTD SVG 1.1//EN" "http://www.w3.org/Graphics/SVG/1.1/DTD/svg11.dtd">
<svg width="100%" height="100%" viewBox="0 0 366 404" version="1.1" xmlns="http://www.w3.org/2000/svg" xmlns:xlink="http://www.w3.org/1999/xlink" xml:space="preserve" xmlns:serif="http://www.serif.com/" style="fill-rule:evenodd;clip-rule:evenodd;stroke-linecap:round;stroke-miterlimit:2;">
    <g transform="matrix(1,0,0,1,-36357.103755,-653.208694)">
        <g transform="matrix(2.024255,0,0,1.231413,36256.425592,19.999981)">
            <g transform="matrix(0.318205,0,0,0.523081,-46.60366,414.746908)">
                <g transform="matrix(0.965926,-0.258819,0.258819,0.965926,-9786.398624,-6433.053983)">
                    <path d="M8023.834,9147.343C8021.931,9125.949 8474.154,9243.602 8461.325,9255.515C8448.496,9267.427 8458.606,9316.123 8392.628,9425.17C8392.628,9425.17 8418.102,9483.122 8399.774,9589.419C8381.447,9695.716 8406.189,9730.538 8406.189,9730.538C8406.189,9730.538 7958.09,9610.495 7869.204,9613.244C7869.204,9613.244 7926.018,9506.947 7931.516,9484.038C7934.402,9472.014 8008.803,9322.483 8008.803,9322.483C8008.803,9322.483 8024.831,9158.552 8023.834,9147.343Z" style="fill:white;"/>
                </g>
                <g transform="matrix(0.965926,-0.258819,0.258819,0.965926,-9772.349875,-6445.829776)">
                    <path d="M8023.834,9147.343C8021.931,9125.949 8472.747,9258.119 8459.918,9270.032C8447.089,9281.944 8458.606,9316.123 8392.628,9425.17C8392.628,9425.17 8418.102,9483.122 8399.774,9589.419C8381.447,9695.716 8406.189,9730.538 8406.189,9730.538C8406.189,9730.538 7958.09,9610.495 7869.204,9613.244C7869.204,9613.244 7926.018,9506.947 7931.516,9484.038C7934.402,9472.014 8008.803,9322.483 8008.803,9322.483C8008.803,9322.483 8024.831,9158.552 8023.834,9147.343Z" style="fill:none;"/>
                    <clipPath id="_clip1">
                        <path d="M8023.834,9147.343C8021.931,9125.949 8472.747,9258.119 8459.918,9270.032C8447.089,9281.944 8458.606,9316.123 8392.628,9425.17C8392.628,9425.17 8418.102,9483.122 8399.774,9589.419C8381.447,9695.716 8406.189,9730.538 8406.189,9730.538C8406.189,9730.538 7958.09,9610.495 7869.204,9613.244C7869.204,9613.244 7926.018,9506.947 7931.516,9484.038C7934.402,9472.014 8008.803,9322.483 8008.803,9322.483C8008.803,9322.483 8024.831,9158.552 8023.834,9147.343Z"/>
                    </clipPath>
                    <g clip-path="url(#_clip1)">
                        <path d="M7870.108,9588.656C7870.108,9588.656 8359.215,9677.25 8409.017,9713.947" style="fill:none;stroke:black;stroke-width:4.17px;"/>
                    </g>
                    <path d="M8023.834,9147.343C8021.931,9125.949 8472.747,9258.119 8459.918,9270.032C8447.089,9281.944 8458.606,9316.123 8392.628,9425.17C8392.628,9425.17 8418.102,9483.122 8399.774,9589.419C8381.447,9695.716 8406.189,9730.538 8406.189,9730.538C8406.189,9730.538 7958.09,9610.495 7869.204,9613.244C7869.204,9613.244 7926.018,9506.947 7931.516,9484.038C7934.402,9472.014 8008.803,9322.483 8008.803,9322.483C8008.803,9322.483 8024.831,9158.552 8023.834,9147.343Z" style="fill:none;stroke:black;stroke-width:4.17px;"/>
                </g>
                <g transform="matrix(1,0,0,1,-7879.433321,-11725.959408)">
                    <path d="M8210.082,12106.061C8232.203,12128.723 8414.305,12141.336 8446.795,12132.053C8479.285,12122.77 8648.233,12119.057 8674.225,12105.133C8700.217,12091.209 8677.274,12064.393 8683.772,12047.684C8690.27,12030.975 8543.57,11978.777 8435.656,11982.599C8294.804,11987.588 8202.601,12004.794 8203.425,12048.002C8203.65,12059.788 8199.418,12095.136 8210.082,12106.061Z" style="fill:white;"/>
                    <clipPath id="_clip2">
                        <path d="M8210.082,12106.061C8232.203,12128.723 8414.305,12141.336 8446.795,12132.053C8479.285,12122.77 8648.233,12119.057 8674.225,12105.133C8700.217,12091.209 8677.274,12064.393 8683.772,12047.684C8690.27,12030.975 8543.57,11978.777 8435.656,11982.599C8294.804,11987.588 8202.601,12004.794 8203.425,12048.002C8203.65,12059.788 8199.418,12095.136 8210.082,12106.061Z"/>
                    </clipPath>
                    <g clip-path="url(#_clip2)">
                        <g transform="matrix(1,0,0,1,-1223.999927,0)">
                            <path d="M9435.056,12052.468C9435.056,12052.468 9397.494,11993.141 9664.348,11929.379C9664.348,11929.379 9874.525,11976.61 9909.948,12047.456C9909.948,12064.002 9568.26,12154.826 9435.056,12052.468Z" style="fill:rgb(230,230,230);"/>
                        </g>
                        <path d="M8177.425,12019.731C8177.425,12019.731 8180.76,12090.014 8452.198,12078.213C8751.106,12065.217 8688.911,12027.157 8688.911,12027.157L8697.266,12112.559L8446.628,12143.193L8188.565,12133.91L8177.425,12019.731Z" style="fill:rgb(217,217,217);"/>
                    </g>
                </g>
                <g transform="matrix(1,0,0,1,-7865.384571,-11738.735202)">
                    <path d="M8210.082,12106.061C8232.203,12128.723 8414.305,12141.336 8446.795,12132.053C8479.285,12122.77 8648.233,12119.057 8674.225,12105.133C8700.217,12091.209 8677.274,12064.393 8683.772,12047.684C8690.27,12030.975 8543.57,11978.777 8435.656,11982.599C8294.804,11987.588 8202.601,12004.794 8203.425,12048.002C8203.65,12059.788 8199.418,12095.136 8210.082,12106.061Z" style="fill:none;"/>
                    <clipPath id="_clip3">
                        <path d="M8210.082,12106.061C8232.203,12128.723 8414.305,12141.336 8446.795,12132.053C8479.285,12122.77 8648.233,12119.057 8674.225,12105.133C8700.217,12091.209 8677.274,12064.393 8683.772,12047.684C8690.27,12030.975 8543.57,11978.777 8435.656,11982.599C8294.804,11987.588 8202.601,12004.794 8203.425,12048.002C8203.65,12059.788 8199.418,12095.136 8210.082,12106.061Z"/>
                    </clipPath>
                    <g clip-path="url(#_clip3)">
                        <path d="M8177.425,12019.731C8177.425,12019.731 8180.76,12090.014 8452.198,12078.213C8751.106,12065.217 8688.911,12027.157 8688.911,12027.157L8697.266,12112.559L8446.628,12143.193L8188.565,12133.91L8177.425,12019.731Z" style="fill:none;stroke:black;stroke-width:4.17px;"/>
                    </g>
                    <path d="M8210.082,12106.061C8232.203,12128.723 8414.305,12141.336 8446.795,12132.053C8479.285,12122.77 8648.233,12119.057 8674.225,12105.133C8700.217,12091.209 8677.274,12064.393 8683.772,12047.684C8690.27,12030.975 8543.57,11978.777 8435.656,11982.599C8294.804,11987.588 8202.601,12004.794 8203.425,12048.002C8203.65,12059.788 8199.418,12095.136 8210.082,12106.061Z" style="fill:none;stroke:black;stroke-width:4.17px;"/>
                </g>
                <g transform="matrix(1,0,0,1,-9103.433248,-11725.959408)">
                    <path d="M9898.98,12036.327C9914.891,12047.6 9425.683,12037.665 9449.563,12014.9C9473.488,11992.091 9567.112,11913.455 9637.956,11916.183C9712.916,11919.069 9828.261,11986.225 9898.98,12036.327Z" style="fill:rgb(230,230,230);"/>
                </g>
                <g transform="matrix(2.530985,0,0,1.539672,246.317455,-511.125701)">
                    <g transform="matrix(0.161547,-0.211024,0.128372,0.265559,37.882711,732.018265)">
                        <g transform="matrix(1,0,0,1,0,-10428.652911)">
                            <path d="M253.853,10811.124C253.853,10811.124 296.035,10725.322 301.308,10688.893C306.58,10652.463 315.82,10572.42 277.851,10501.264C277.851,10501.264 280.049,10526.196 287.674,10556.694C295.298,10587.192 305.973,10649.204 287.166,10694.951C268.359,10740.698 262.767,10783.395 243.452,10808.81L253.853,10811.124Z" style="fill:none;stroke:black;stroke-width:4.17px;"/>
                        </g>
                        <g transform="matrix(1,0,0,1,0,-10428.652911)">
                            <path d="M260.244,10785.68C260.244,10785.68 281.018,10797.729 291.406,10769.061C291.406,10769.061 335.447,10722.942 335.032,10680.977C334.616,10639.013 333.785,10652.309 337.94,10637.351C342.095,10622.393 332.539,10607.02 336.694,10589.154C340.849,10571.288 321.555,10567.588 318.04,10526.589C318.04,10526.589 302.421,10502.77 294.612,10486.76C286.802,10470.751 254.003,10470.751 255.565,10501.208C257.126,10531.665 268.45,10537.912 262.593,10549.236C256.736,10560.56 257.127,10586.722 274.307,10614.445C291.488,10642.169 265.717,10653.883 266.107,10673.016C266.498,10692.149 262.962,10711.592 253.374,10732.512C248.101,10744.017 249.379,10785.642 260.244,10785.68Z" style="fill:none;stroke:black;stroke-width:4.17px;"/>
                        </g>
                    </g>
                    <g transform="matrix(0.161547,-0.211024,0.128372,0.265559,37.882711,732.018265)">
                        <g transform="matrix(1,0,0,1,0,-10428.652911)">
                            <path d="M515.585,10445.39C515.585,10445.39 530.357,10450.314 516.992,10487.595C503.627,10524.876 512.068,10542.462 502.924,10553.717C493.779,10564.971 467.753,10577.633 460.719,10602.956C453.684,10628.279 445.947,10676.815 400.224,10716.91C400.224,10716.91 391.08,10786.549 327.068,10791.473C327.068,10791.473 287.677,10821.72 277.126,10811.872C266.574,10802.024 275.015,10775.294 289.084,10727.462C303.152,10679.629 320.738,10644.458 363.646,10610.694C363.646,10610.694 379.825,10597.329 389.673,10560.047C399.521,10522.766 412.182,10543.165 421.327,10517.139C430.471,10491.112 447.354,10472.12 476.897,10465.789C506.441,10459.458 495.89,10444.686 515.585,10445.39Z" style="fill:none;stroke:black;stroke-width:4.17px;"/>
                        </g>
                        <g transform="matrix(1,0,0,1,0,-10428.652911)">
                            <path d="M474.516,10506.587C476.703,10508.472 315.038,10773.912 267.981,10821.017C267.981,10821.017 468.913,10501.758 474.516,10506.587Z" style="fill:none;stroke:black;stroke-width:4.17px;"/>
                        </g>
                    </g>
                    <g transform="matrix(0.161547,-0.211024,0.128372,0.265559,37.882711,732.018265)">
                        <g transform="matrix(1,0,0,1,0,-10428.652911)">
                            <path d="M288.282,10836.495C288.282,10836.495 419.503,10729.876 510.087,10685.222C600.672,10640.568 631.292,10641.206 631.292,10641.206C631.292,10641.206 564.31,10634.189 476.278,10690.963C388.245,10747.738 283.816,10829.477 283.816,10829.477L288.282,10836.495Z" style="fill:none;stroke:black;stroke-width:4.17px;"/>
                        </g>
                        <g transform="matrix(1,0,0,1,0,-10428.652911)">
                            <path d="M305.316,10815.357C310.1,10822.055 343.591,10804.512 365.918,10803.875C388.245,10803.237 399.09,10795.582 416.314,10779.634C433.537,10763.686 449.485,10780.272 473.726,10726.049C473.726,10726.049 487.122,10710.101 533.052,10715.842C578.982,10721.583 542.621,10687.774 592.379,10683.308C642.136,10678.843 629.378,10660.981 650.429,10653.326C671.48,10645.671 689.342,10652.05 681.687,10624.62C674.032,10597.189 651.067,10610.586 651.067,10610.586C651.067,10610.586 628.74,10592.724 603.223,10605.482C577.707,10618.241 564.948,10602.293 552.828,10604.844C540.707,10607.396 534.328,10630.999 494.777,10640.568C455.226,10650.137 469.261,10662.257 445.658,10671.188C422.055,10680.119 388.245,10680.757 368.47,10720.945C348.694,10761.134 350.608,10756.669 337.212,10763.686C323.816,10770.703 300.532,10808.659 305.316,10815.357Z" style="fill:none;stroke:black;stroke-width:4.17px;"/>
                        </g>
                    </g>
                </g>
            </g>
        </g>
    </g>
</svg>
