<?xml version="1.0" encoding="UTF-8" standalone="no"?>
<!DOCTYPE svg PUBLIC "-//W3C//DTD SVG 1.1//EN" "http://www.w3.org/Graphics/SVG/1.1/DTD/svg11.dtd">
<svg width="100%" height="100%" viewBox="0 0 279 343" version="1.1" xmlns="http://www.w3.org/2000/svg" xmlns:xlink="http://www.w3.org/1999/xlink" xml:space="preserve" xmlns:serif="http://www.serif.com/" style="fill-rule:evenodd;clip-rule:evenodd;stroke-linecap:round;stroke-miterlimit:2;">
    <g transform="matrix(1,0,0,1,-25701.582069,-110.731634)">
        <g transform="matrix(1,0,0,1,25566.980194,20.153577)">
            <g transform="matrix(0.375158,0,0,0.375158,49.097469,26.301709)">
                <g transform="matrix(1,0,0,1,-1492.714948,-16867.610569)">
                    <path d="M1737.212,17498.662L1816.306,17848.208C1816.306,17848.208 1859.681,17929.198 2085.483,17926.647C2311.285,17924.096 2334.248,17838.622 2334.248,17838.622L2410.791,17499.282C2410.791,17499.282 2442.684,17455.907 2409.515,17415.084C2376.346,17374.261 2237.293,17329.611 2056.141,17338.541C1874.989,17347.471 1761.451,17392.121 1739.763,17416.36C1718.076,17440.599 1711.698,17469.976 1737.212,17498.662Z" style="fill:white;"/>
                    <clipPath id="_clip1">
                        <path d="M1737.212,17498.662L1816.306,17848.208C1816.306,17848.208 1859.681,17929.198 2085.483,17926.647C2311.285,17924.096 2334.248,17838.622 2334.248,17838.622L2410.791,17499.282C2410.791,17499.282 2442.684,17455.907 2409.515,17415.084C2376.346,17374.261 2237.293,17329.611 2056.141,17338.541C1874.989,17347.471 1761.451,17392.121 1739.763,17416.36C1718.076,17440.599 1711.698,17469.976 1737.212,17498.662Z"/>
                    </clipPath>
                    <g clip-path="url(#_clip1)">
                        <path d="M1690.046,17472.429C1690.046,17472.429 1764.298,17558.803 2070.395,17557.287C2376.493,17555.772 2437.106,17489.097 2437.106,17489.097L2432.56,17275.435L1805.212,17252.705L1690.046,17472.429Z" style="fill:rgb(217,217,217);"/>
                    </g>
                </g>
                <g transform="matrix(1,0,0,1,-1461.455719,-16849.375952)">
                    <path d="M1737.212,17498.662L1816.306,17848.208C1816.306,17848.208 1859.681,17929.198 2085.483,17926.647C2311.285,17924.096 2334.248,17838.622 2334.248,17838.622L2410.791,17499.282C2410.791,17499.282 2442.684,17455.907 2409.515,17415.084C2376.346,17374.261 2237.293,17329.611 2056.141,17338.541C1874.989,17347.471 1761.451,17392.121 1739.763,17416.36C1718.076,17440.599 1711.698,17469.976 1737.212,17498.662Z" style="fill:none;"/>
                    <clipPath id="_clip2">
                        <path d="M1737.212,17498.662L1816.306,17848.208C1816.306,17848.208 1859.681,17929.198 2085.483,17926.647C2311.285,17924.096 2334.248,17838.622 2334.248,17838.622L2410.791,17499.282C2410.791,17499.282 2442.684,17455.907 2409.515,17415.084C2376.346,17374.261 2237.293,17329.611 2056.141,17338.541C1874.989,17347.471 1761.451,17392.121 1739.763,17416.36C1718.076,17440.599 1711.698,17469.976 1737.212,17498.662Z"/>
                    </clipPath>
                    <g clip-path="url(#_clip2)">
                        <g>
                            <path d="M2379.524,17514.858L2303.676,17875.375" style="fill:none;stroke:black;stroke-width:6.97px;"/>
                            <g transform="matrix(1,0,0,1,-115.190928,28.0778)">
                                <path d="M2379.524,17514.858L2338.954,17880.414" style="fill:none;stroke:black;stroke-width:6.97px;"/>
                            </g>
                            <g transform="matrix(1.00038,-0.001806,-0.001806,1.008586,-0.944206,-131.682493)">
                                <path d="M2379.524,17514.858L2316.619,17868.974" style="fill:none;stroke:black;stroke-width:6.96px;"/>
                            </g>
                            <g transform="matrix(1.00038,-0.001806,-0.001806,1.008586,-130.534,-109.364234)">
                                <path d="M2379.524,17514.858L2351.894,17875.461" style="fill:none;stroke:black;stroke-width:6.96px;"/>
                            </g>
                            <g transform="matrix(1.00038,-0.001806,-0.001806,1.008586,-39.821155,-124.48306)">
                                <path d="M2379.524,17514.858L2327.423,17873.99" style="fill:none;stroke:black;stroke-width:6.96px;"/>
                            </g>
                            <g transform="matrix(1.00038,-0.001806,-0.001806,1.008586,-175.170518,-102.884761)">
                                <path d="M2379.524,17514.858L2359.812,17876.189" style="fill:none;stroke:black;stroke-width:6.96px;"/>
                            </g>
                            <g transform="matrix(1.00038,-0.001806,-0.001806,1.008586,-223.406752,-111.524086)">
                                <path d="M2379.524,17514.858L2365.591,17888.334" style="fill:none;stroke:black;stroke-width:6.96px;"/>
                            </g>
                            <g transform="matrix(-1,0,0,1,4146.882002,0)">
                                <path d="M2379.524,17514.858L2303.676,17875.375" style="fill:none;stroke:black;stroke-width:6.97px;"/>
                            </g>
                            <g transform="matrix(-1,0,0,1,4262.07293,28.0778)">
                                <path d="M2379.524,17514.858L2338.954,17880.414" style="fill:none;stroke:black;stroke-width:6.97px;"/>
                            </g>
                            <g transform="matrix(-1.00038,-0.001806,0.001806,1.008586,4147.826208,-131.682493)">
                                <path d="M2379.524,17514.858L2316.619,17868.974" style="fill:none;stroke:black;stroke-width:6.96px;"/>
                            </g>
                            <g transform="matrix(-1.00038,-0.001806,0.001806,1.008586,4277.416002,-109.364234)">
                                <path d="M2379.524,17514.858L2351.894,17875.461" style="fill:none;stroke:black;stroke-width:6.96px;"/>
                            </g>
                            <g transform="matrix(-1.00038,-0.001806,0.001806,1.008586,4186.703157,-124.48306)">
                                <path d="M2379.524,17514.858L2327.423,17873.99" style="fill:none;stroke:black;stroke-width:6.96px;"/>
                            </g>
                            <g transform="matrix(-1.00038,-0.001806,0.001806,1.008586,4322.05252,-102.884761)">
                                <path d="M2379.524,17514.858L2359.812,17876.189" style="fill:none;stroke:black;stroke-width:6.96px;"/>
                            </g>
                            <g transform="matrix(-1.00038,-0.001806,0.001806,1.008586,4370.288754,-111.524086)">
                                <path d="M2379.524,17514.858L2365.591,17888.334" style="fill:none;stroke:black;stroke-width:6.96px;"/>
                            </g>
                            <g transform="matrix(1.00038,-0.001806,-0.001806,1.008586,-275.242703,-105.764545)">
                                <path d="M2379.524,17514.858L2379.963,17876.225" style="fill:none;stroke:black;stroke-width:6.96px;"/>
                            </g>
                        </g>
                        <path d="M1690.046,17472.429C1690.046,17472.429 1764.298,17558.803 2070.395,17557.287C2376.493,17555.772 2437.106,17489.097 2437.106,17489.097L2432.56,17275.435L1805.212,17252.705L1690.046,17472.429Z" style="fill:none;stroke:black;stroke-width:6.97px;"/>
                    </g>
                    <path d="M1737.212,17498.662L1816.306,17848.208C1816.306,17848.208 1859.681,17929.198 2085.483,17926.647C2311.285,17924.096 2334.248,17838.622 2334.248,17838.622L2410.791,17499.282C2410.791,17499.282 2442.684,17455.907 2409.515,17415.084C2376.346,17374.261 2237.293,17329.611 2056.141,17338.541C1874.989,17347.471 1761.451,17392.121 1739.763,17416.36C1718.076,17440.599 1711.698,17469.976 1737.212,17498.662Z" style="fill:none;stroke:black;stroke-width:6.97px;"/>
                </g>
                <g transform="matrix(1,0,0,0.777573,-1477.085333,-12964.253787)">
                    <path d="M1715.593,17366.356C1715.593,17366.356 1675.715,17451.15 2060.037,17478.619C2359.987,17500.058 2454.81,17271.627 2313.905,17183.929C2313.905,17183.929 2307.526,17048.703 2192.711,17053.805C2192.711,17053.805 2185.057,16924.958 2040.901,16893.065C2040.901,16893.065 2092.309,16925.022 1947.774,17030.843C1876.333,17083.147 1914.605,17135.451 1914.605,17135.451C1914.605,17135.451 1739.832,17140.554 1787.033,17273.229C1787.033,17273.229 1718.144,17279.607 1715.593,17366.356Z" style="fill:white;"/>
                </g>
                <g transform="matrix(1,0,0,0.777573,-1445.826105,-12946.019171)">
                    <path d="M1715.593,17366.356C1715.593,17366.356 1675.715,17451.15 2060.037,17478.619C2359.987,17500.058 2454.81,17271.627 2313.905,17183.929C2313.905,17183.929 2307.526,17048.703 2192.711,17053.805C2192.711,17053.805 2185.057,16924.958 2040.901,16893.065C2040.901,16893.065 2092.309,16925.022 1947.774,17030.843C1876.333,17083.147 1914.605,17135.451 1914.605,17135.451C1914.605,17135.451 1739.832,17140.554 1787.033,17273.229C1787.033,17273.229 1718.144,17279.607 1715.593,17366.356Z" style="fill:none;"/>
                    <clipPath id="_clip3">
                        <path d="M1715.593,17366.356C1715.593,17366.356 1675.715,17451.15 2060.037,17478.619C2359.987,17500.058 2454.81,17271.627 2313.905,17183.929C2313.905,17183.929 2307.526,17048.703 2192.711,17053.805C2192.711,17053.805 2185.057,16924.958 2040.901,16893.065C2040.901,16893.065 2092.309,16925.022 1947.774,17030.843C1876.333,17083.147 1914.605,17135.451 1914.605,17135.451C1914.605,17135.451 1739.832,17140.554 1787.033,17273.229C1787.033,17273.229 1718.144,17279.607 1715.593,17366.356Z"/>
                    </clipPath>
                    <g clip-path="url(#_clip3)">
                        <g>
                            <path d="M2190.16,17023.188C2190.16,17023.188 2252.26,17107.321 1894.626,17137.333" style="fill:none;stroke:black;stroke-width:7.79px;"/>
                            <path d="M2327.937,17141.83C2402.78,17186.48 1940.119,17391.871 1747.486,17259.196" style="fill:none;stroke:black;stroke-width:7.79px;"/>
                        </g>
                    </g>
                    <path d="M1715.593,17366.356C1715.593,17366.356 1675.715,17451.15 2060.037,17478.619C2359.987,17500.058 2454.81,17271.627 2313.905,17183.929C2313.905,17183.929 2307.526,17048.703 2192.711,17053.805C2192.711,17053.805 2185.057,16924.958 2040.901,16893.065C2040.901,16893.065 2092.309,16925.022 1947.774,17030.843C1876.333,17083.147 1914.605,17135.451 1914.605,17135.451C1914.605,17135.451 1739.832,17140.554 1787.033,17273.229C1787.033,17273.229 1718.144,17279.607 1715.593,17366.356Z" style="fill:none;stroke:black;stroke-width:7.79px;"/>
                </g>
            </g>
        </g>
    </g>
</svg>
