<?xml version="1.0" encoding="UTF-8" standalone="no"?>
<!DOCTYPE svg PUBLIC "-//W3C//DTD SVG 1.1//EN" "http://www.w3.org/Graphics/SVG/1.1/DTD/svg11.dtd">
<svg width="100%" height="100%" viewBox="0 0 209 371" version="1.1" xmlns="http://www.w3.org/2000/svg" xmlns:xlink="http://www.w3.org/1999/xlink" xml:space="preserve" xmlns:serif="http://www.serif.com/" style="fill-rule:evenodd;clip-rule:evenodd;stroke-linecap:round;stroke-miterlimit:2;">
    <g transform="matrix(1,0,0,1,-36109.828543,-645.794638)">
        <g transform="matrix(2.024255,0,0,1.231413,35216.99831,19.999981)">
            <g transform="matrix(0.333578,0,0,0.548352,335.750416,357.419013)">
                <g transform="matrix(1,0,0,1,-17413.350862,-11705.959408)">
                    <path d="M18020.675,12007.469C18009.214,12018.752 17971.102,11997.874 17955.11,12052.245L17933.256,12046.914C17933.256,12046.914 17936.987,12003.738 17981.229,11989.879C18025.472,11976.02 18017.299,11981.617 18023.873,11984.548C18030.447,11987.48 18026.172,12002.057 18020.675,12007.469Z" style="fill:rgb(230,230,230);"/>
                </g>
                <g transform="matrix(1,0,0,1,-17407.350801,-11689.959423)">
                    <path d="M18020.675,12007.469C18009.214,12018.752 17971.102,11997.874 17955.11,12052.245L17933.256,12046.914C17933.256,12046.914 17936.987,12003.738 17981.229,11989.879C18025.472,11976.02 18017.299,11981.617 18023.873,11984.548C18030.447,11987.48 18026.172,12002.057 18020.675,12007.469Z" style="fill:none;stroke:black;stroke-width:4.17px;"/>
                </g>
                <g transform="matrix(1,0,0,1,-17413.350862,-11705.959408)">
                    <path d="M17801.491,12505.686C17801.491,12505.686 17810.542,12523.789 17852.029,12482.303C17893.515,12440.817 17950.841,12440.817 17983.276,12391.788C18015.71,12342.759 17987.802,12299.764 18001.379,12264.312C18014.956,12228.86 18014.285,12174.89 17999.953,12134.913C17985.622,12094.935 18005.233,12054.203 17949.415,12042.134C17893.598,12030.066 17907.929,12034.592 17882.283,12059.483C17856.637,12084.375 17858.9,12094.181 17837.026,12107.004C17815.151,12119.827 17776.682,12159.05 17763.859,12214.113C17751.036,12269.177 17688.631,12297.212 17770.648,12442.768C17787.937,12473.451 17767.465,12493.929 17801.491,12505.686Z" style="fill:white;"/>
                </g>
                <g transform="matrix(1,0,0,1,-17407.350801,-11689.959423)">
                    <path d="M17801.491,12505.686C17801.491,12505.686 17810.542,12523.789 17852.029,12482.303C17893.515,12440.817 17950.841,12440.817 17983.276,12391.788C18015.71,12342.759 17987.802,12299.764 18001.379,12264.312C18014.956,12228.86 18014.285,12174.89 17999.953,12134.913C17985.622,12094.935 18005.233,12054.203 17949.415,12042.134C17893.598,12030.066 17907.929,12034.592 17882.283,12059.483C17856.637,12084.375 17858.9,12094.181 17837.026,12107.004C17815.151,12119.827 17776.682,12159.05 17763.859,12214.113C17751.036,12269.177 17688.631,12297.212 17770.648,12442.768C17787.937,12473.451 17767.465,12493.929 17801.491,12505.686Z" style="fill:none;"/>
                    <clipPath id="_clip1">
                        <path d="M17801.491,12505.686C17801.491,12505.686 17810.542,12523.789 17852.029,12482.303C17893.515,12440.817 17950.841,12440.817 17983.276,12391.788C18015.71,12342.759 17987.802,12299.764 18001.379,12264.312C18014.956,12228.86 18014.285,12174.89 17999.953,12134.913C17985.622,12094.935 18005.233,12054.203 17949.415,12042.134C17893.598,12030.066 17907.929,12034.592 17882.283,12059.483C17856.637,12084.375 17858.9,12094.181 17837.026,12107.004C17815.151,12119.827 17776.682,12159.05 17763.859,12214.113C17751.036,12269.177 17688.631,12297.212 17770.648,12442.768C17787.937,12473.451 17767.465,12493.929 17801.491,12505.686Z"/>
                    </clipPath>
                    <g clip-path="url(#_clip1)">
                        <path d="M17928.146,12037.74C17928.146,12037.74 17905.393,12052.928 17875.06,12110.836C17844.728,12168.743 17826.115,12163.918 17804.054,12252.847C17781.994,12341.776 17767.518,12342.466 17783.373,12415.54C17799.229,12488.613 17784.063,12509.984 17784.063,12509.984" style="fill:none;stroke:black;stroke-width:4.17px;"/>
                        <g transform="matrix(-0.831267,-0.555873,-0.555873,0.831267,39561.431737,11996.740995)">
                            <path d="M17928.146,12037.74C17928.146,12037.74 17905.393,12052.928 17875.06,12110.836C17844.728,12168.743 17826.115,12163.918 17804.054,12252.847C17781.994,12341.776 17767.518,12342.466 17783.373,12415.54C17799.229,12488.613 17784.063,12509.984 17784.063,12509.984" style="fill:none;stroke:black;stroke-width:4.17px;"/>
                        </g>
                        <path d="M17945.015,12032.103C17945.015,12032.103 17875.741,12187.734 17866.251,12228.539C17856.761,12269.344 17803.619,12353.632 17796.977,12509.432" style="fill:none;stroke:black;stroke-width:4.17px;"/>
                        <g transform="matrix(-0.791321,-0.611401,-0.611401,0.791321,39529.282556,13499.342743)">
                            <path d="M17967.167,12036.027C17967.167,12036.027 17883.079,12192.204 17873.59,12233.01C17864.1,12273.815 17803.619,12353.632 17796.977,12509.432" style="fill:none;stroke:black;stroke-width:4.17px;"/>
                        </g>
                    </g>
                    <path d="M17801.491,12505.686C17801.491,12505.686 17810.542,12523.789 17852.029,12482.303C17893.515,12440.817 17950.841,12440.817 17983.276,12391.788C18015.71,12342.759 17987.802,12299.764 18001.379,12264.312C18014.956,12228.86 18014.285,12174.89 17999.953,12134.913C17985.622,12094.935 18005.233,12054.203 17949.415,12042.134C17893.598,12030.066 17907.929,12034.592 17882.283,12059.483C17856.637,12084.375 17858.9,12094.181 17837.026,12107.004C17815.151,12119.827 17776.682,12159.05 17763.859,12214.113C17751.036,12269.177 17688.631,12297.212 17770.648,12442.768C17787.937,12473.451 17767.465,12493.929 17801.491,12505.686Z" style="fill:none;stroke:black;stroke-width:4.17px;"/>
                </g>
            </g>
        </g>
    </g>
</svg>
